<svg width="24" height="24" viewBox="0 0 24 24" fill="none" xmlns="http://www.w3.org/2000/svg">
<path d="M7 9.01L7.01 8.999M11 9.01L11.01 8.999M7 13.01L7.01 12.999M11 13.01L11.01 12.999M7 17.01L7.01 16.999M11 17.01L11.01 16.999M15 21H3.6C3.44087 21 3.28826 20.9368 3.17574 20.8243C3.06321 20.7117 3 20.5591 3 20.4V5.6C3 5.44087 3.06321 5.28826 3.17574 5.17574C3.28826 5.06321 3.44087 5 3.6 5H9V3.6C9 3.44087 9.06321 3.28826 9.17574 3.17574C9.28826 3.06321 9.44087 3 9.6 3H14.4C14.5591 3 14.7117 3.06321 14.8243 3.17574C14.9368 3.28826 15 3.44087 15 3.6V9M15 21H20.4C20.5591 21 20.7117 20.9368 20.8243 20.8243C20.9368 20.7117 21 20.5591 21 20.4V9.6C21 9.44087 20.9368 9.28826 20.8243 9.17574C20.7117 9.06321 20.5591 9 20.4 9H15M15 21V17M15 9V13M15 17V13M15 17H17M15 13H17" stroke="currentColor" stroke-width="1.5" stroke-linecap="round" stroke-linejoin="round"/>
</svg>
