<svg width="88" height="88" viewBox="0 0 88 88" fill="none" xmlns="http://www.w3.org/2000/svg">
<path d="M63.4381 51.6C66.1381 48.5 67.6381 44.6 67.6381 40.4C67.6381 39 66.9381 38.1 66.4381 37.7C64.6381 36.2 61.5381 36.7 57.9381 37.2C55.7381 37.6 51.9381 38.2 51.1381 37.4C50.4381 36.8 50.9381 33.3 51.1381 31.4C51.6381 28.2 52.0381 25.1 50.4381 23.3C49.9381 22.7 49.0381 22 47.4381 22C39.8381 22 33.2381 25.9 29.7381 31.6C28.6381 29.2 27.0381 27.6 25.0381 27.1C23.8381 26.8 22.5381 27 21.2381 27.5C20.2381 27.9 19.7381 29.1 20.1381 30.1C20.5381 31.1 21.7381 31.6 22.7381 31.2C23.2381 31 23.7381 30.9 24.1381 31C25.5381 31.3 27.5381 34.5 27.3381 40.3C27.3381 40.4 27.3381 40.6 27.3381 40.7C27.4381 44.9 29.0381 48.7 31.6381 51.7C28.9381 52.8 26.9381 55.4 26.9381 58.5C26.9381 62.5 30.2381 65.8 34.3381 65.8C38.4381 65.8 41.7381 62.5 41.7381 58.5C41.7381 58.3 41.7381 58.1 41.7381 57.9C43.5381 58.4 45.4381 58.6 47.3381 58.6C49.3381 58.6 51.2381 58.3 53.0381 57.8C53.0381 57.9 53.0381 58.1 53.0381 58.2C53.0381 62.2 56.3381 65.5 60.4381 65.5C64.5381 65.5 67.8381 62.2 67.8381 58.2C68.1381 55.3 66.2381 52.7 63.4381 51.6ZM34.5381 61.9C32.6381 61.9 31.1381 60.4 31.1381 58.6C31.1381 56.8 32.6381 55.3 34.5381 55.3C36.4381 55.3 37.9381 56.8 37.9381 58.6C38.0381 60.4 36.4381 61.9 34.5381 61.9ZM31.4381 40.4C31.4381 32.5 38.6381 26.1 47.5381 26C47.8381 26.8 47.4381 29.3 47.2381 30.8C46.7381 34.5 46.1381 38.3 48.5381 40.4C50.8381 42.4 54.8381 41.8 58.6381 41.1C60.2381 40.8 62.7381 40.4 63.7381 40.6C63.5381 48.4 56.3381 54.7 47.5381 54.7C38.6381 54.7 31.4381 48.3 31.4381 40.4ZM60.7381 61.8C58.8381 61.8 57.3381 60.3 57.3381 58.5C57.3381 56.7 58.8381 55.2 60.7381 55.2C62.6381 55.2 64.1381 56.7 64.1381 58.5C64.1381 60.3 62.6381 61.8 60.7381 61.8Z" fill="currentColor"/>
</svg>
