<svg width="20" height="20" viewBox="0 0 20 20" fill="none" xmlns="http://www.w3.org/2000/svg">
<path d="M12.0832 9.5H7.9165C7.57484 9.5 7.2915 9.21667 7.2915 8.875C7.2915 8.53333 7.57484 8.25 7.9165 8.25H12.0832C12.4248 8.25 12.7082 8.53333 12.7082 8.875C12.7082 9.21667 12.4248 9.5 12.0832 9.5Z" fill="#F9F9F9"/>
<path d="M10 11.6332C9.65833 11.6332 9.375 11.3499 9.375 11.0082V6.84155C9.375 6.49989 9.65833 6.21655 10 6.21655C10.3417 6.21655 10.625 6.49989 10.625 6.84155V11.0082C10.625 11.3499 10.3417 11.6332 10 11.6332Z" fill="#F9F9F9"/>
<path d="M15.8916 18.9584C15.4666 18.9584 14.9999 18.8334 14.5499 18.5751L10.4833 16.3167C10.2416 16.1834 9.7666 16.1834 9.52494 16.3167L5.45827 18.5751C4.63327 19.0334 3.7916 19.0834 3.14993 18.7001C2.50827 18.3251 2.1416 17.5667 2.1416 16.6251V4.88341C2.1416 2.76675 3.8666 1.04175 5.98327 1.04175H14.0249C16.1416 1.04175 17.8666 2.76675 17.8666 4.88341V16.6251C17.8666 17.5667 17.4999 18.3251 16.8583 18.7001C16.5666 18.8751 16.2333 18.9584 15.8916 18.9584ZM9.99994 14.9667C10.3916 14.9667 10.7749 15.0501 11.0833 15.2251L15.1499 17.4834C15.5749 17.7251 15.9666 17.7751 16.2166 17.6251C16.4666 17.4751 16.6083 17.1167 16.6083 16.6251V4.88341C16.6083 3.45841 15.4416 2.29175 14.0166 2.29175H5.98327C4.55827 2.29175 3.3916 3.45841 3.3916 4.88341V16.6251C3.3916 17.1167 3.53327 17.4834 3.78327 17.6251C4.03327 17.7667 4.42494 17.7251 4.84994 17.4834L8.9166 15.2251C9.22494 15.0501 9.60827 14.9667 9.99994 14.9667Z" fill="#F9F9F9"/>
</svg>
