<svg width="14" height="18" viewBox="0 0 14 18" fill="none" xmlns="http://www.w3.org/2000/svg">
<path fill-rule="evenodd" clip-rule="evenodd" d="M4.41683 0.666626H9.5585C11.8168 0.666626 13.6418 1.55829 13.6668 3.82496V16.475C13.6668 16.6166 13.6335 16.7583 13.5668 16.8833C13.4585 17.0833 13.2752 17.2333 13.0502 17.3C12.8335 17.3666 12.5918 17.3333 12.3918 17.2166L6.99183 14.5166L1.5835 17.2166C1.45933 17.2825 1.31683 17.325 1.17516 17.325C0.708496 17.325 0.333496 16.9416 0.333496 16.475V3.82496C0.333496 1.55829 2.16683 0.666626 4.41683 0.666626ZM3.85016 7.01663H10.1252C10.4835 7.01663 10.7752 6.72413 10.7752 6.35829C10.7752 5.99163 10.4835 5.69996 10.1252 5.69996H3.85016C3.49183 5.69996 3.20016 5.99163 3.20016 6.35829C3.20016 6.72413 3.49183 7.01663 3.85016 7.01663Z" fill="#F9F9F9"/>
</svg>
